<svg width="31" height="31" viewBox="0 0 31 31" fill="none" xmlns="http://www.w3.org/2000/svg">
<path d="M12.5 22.4001C13.3286 22.4001 14.0001 21.7287 14.0001 20.9V9.50004C14.0001 8.67148 13.3287 8 12.5 8C11.6715 8 11 8.67137 11 9.50004V20.9C11 21.7287 11.6714 22.4001 12.5 22.4001Z" fill="#DCEE19"/>
<path d="M18.4999 22.4001C19.3285 22.4001 20 21.7287 20 20.9V9.50004C20 8.67148 19.3286 8 18.4999 8C17.6713 8 17 8.67148 17 9.50004V20.9C17 21.7287 17.6714 22.4001 18.4999 22.4001Z" fill="#DCEE19"/>
<circle cx="15.5" cy="15.5" r="15" stroke="#DCEE19"/>
</svg>
