<svg width="25" height="35" viewBox="0 0 25 35" fill="none" xmlns="http://www.w3.org/2000/svg">
<path d="M17.7802 9.80464L14.4971 9.32762L13.029 6.35258C12.9294 6.15075 12.7238 6.02283 12.4986 6.02283C12.2736 6.02283 12.0681 6.15075 11.9684 6.35258L10.5001 9.32762L7.21698 9.80464C6.99406 9.83698 6.80897 9.99291 6.73967 10.2069C6.67008 10.4211 6.72812 10.6562 6.88924 10.8133L9.26482 13.1291L8.70406 16.3989C8.66595 16.6207 8.75719 16.845 8.9394 16.9773C9.12131 17.1095 9.36271 17.1269 9.56195 17.0223L12.4986 15.4787L15.4352 17.0226C15.6345 17.1271 15.8759 17.1098 16.0581 16.9776C16.24 16.8453 16.3312 16.621 16.2931 16.3992L15.7323 13.1294L18.1079 10.8135C18.2693 10.6565 18.3277 10.4214 18.2581 10.2072C18.1885 9.99291 18.0031 9.83669 17.7802 9.80464ZM14.6842 12.499C14.5447 12.635 14.4812 12.8308 14.5141 13.0225L14.925 15.4174L12.7738 14.2867C12.6017 14.196 12.3958 14.196 12.2234 14.2867L10.0722 15.4174L10.4831 13.0225C10.516 12.8308 10.4525 12.635 10.313 12.499L8.57297 10.8026L10.9777 10.4532C11.1706 10.4252 11.3369 10.3042 11.423 10.1298L12.4986 7.95084L13.5742 10.1298C13.6602 10.3042 13.8269 10.4252 14.0195 10.4532L16.4245 10.8029L14.6842 12.499Z" fill="#DCEE19" fill-opacity="0.7"/>
<path d="M12.4986 -0.162842C6.12604 -0.162842 0.948975 5.02145 0.948975 11.394C0.948975 15.1203 2.74098 18.4398 5.47606 20.5547V34.2451C5.47259 34.4807 5.6112 34.6953 5.82718 34.7888C6.04317 34.8827 6.29439 34.8373 6.46417 34.6739L12.4986 29.3372L18.5378 34.6736C18.6479 34.7781 18.7934 34.8365 18.945 34.8365C19.0229 34.8362 19.0998 34.82 19.1708 34.7885C19.3862 34.6941 19.5242 34.4801 19.521 34.2451V20.8372C22.2561 18.7223 24.0481 15.1203 24.0481 11.394C24.0481 5.02174 18.8711 -0.162842 12.4986 -0.162842ZM18 32.5L12.8988 27.6878C12.6747 27.4709 12.3189 27.4709 12.0946 27.6878L6.99998 32V27V21.768C10.6022 23.8964 14.3978 23.8964 18 21.768V32.5ZM12.4986 21.768C6.77834 21.768 2.49998 17.1142 2.49998 11.394C2.49998 5.67374 6.77834 1.5 12.4986 1.5C18.2188 1.5 22.5 5.67374 22.5 11.394C22.5 17.1142 18.2188 21.768 12.4986 21.768Z" fill="#DCEE19" fill-opacity="0.7"/>
</svg>
