<svg width="27" height="35" viewBox="0 0 27 35" fill="none" xmlns="http://www.w3.org/2000/svg">
<path d="M1 0.249512V34.0181" stroke="#DCEE19" stroke-opacity="0.6" stroke-width="1.5"/>
<path d="M5 0.249512V34.0181" stroke="#DCEE19" stroke-opacity="0.6" stroke-width="1.5"/>
<path d="M5.75 2.23584L21.25 2.23584" stroke="#DCEE19" stroke-opacity="0.6" stroke-width="1.5"/>
<path opacity="0.75" d="M5.75 12.1677H21.25" stroke="#DCEE19" stroke-opacity="0.6" stroke-width="1.5"/>
<path d="M5.75 32.0315L21.25 32.0315" stroke="#DCEE19" stroke-opacity="0.6" stroke-width="1.5"/>
<path d="M5.75 22.0996L21.25 22.0996" stroke="#DCEE19" stroke-opacity="0.6" stroke-width="1.5"/>
<path d="M22.75 28.8137H25.25" stroke="#DCEE19" stroke-opacity="0.6" stroke-width="1.5"/>
<path d="M22.75 25.3773H25.25" stroke="#DCEE19" stroke-opacity="0.6" stroke-width="1.5"/>
<path d="M22.75 22.0996H25.25" stroke="#DCEE19" stroke-opacity="0.6" stroke-width="1.5"/>
<path d="M22.75 18.8121H25.25" stroke="#DCEE19" stroke-opacity="0.6" stroke-width="1.5"/>
<path d="M22.75 15.4453H25.25" stroke="#DCEE19" stroke-opacity="0.6" stroke-width="1.5"/>
<path d="M22.75 12.1677H25.25" stroke="#DCEE19" stroke-opacity="0.6" stroke-width="1.5"/>
<path d="M22.75 8.88037H25.25" stroke="#DCEE19" stroke-opacity="0.6" stroke-width="1.5"/>
<path d="M22.75 5.51343H25.25" stroke="#DCEE19" stroke-opacity="0.6" stroke-width="1.5"/>
<path d="M22.75 2.23584H25.25" stroke="#DCEE19" stroke-opacity="0.6" stroke-width="1.5"/>
<path d="M1.75 15.4453H4.25" stroke="#DCEE19" stroke-opacity="0.6" stroke-width="1.5"/>
<path d="M1.75 12.1677H4.25" stroke="#DCEE19" stroke-opacity="0.6" stroke-width="1.5"/>
<path d="M1.75 8.88037H4.25" stroke="#DCEE19" stroke-opacity="0.6" stroke-width="1.5"/>
<path d="M1.75 5.51343H4.25" stroke="#DCEE19" stroke-opacity="0.6" stroke-width="1.5"/>
<path d="M1.75 2.23584H4.25" stroke="#DCEE19" stroke-opacity="0.6" stroke-width="1.5"/>
<path d="M22.75 32.0315H25.25" stroke="#DCEE19" stroke-opacity="0.6" stroke-width="1.5"/>
<path d="M1.75 28.8137H4.25" stroke="#DCEE19" stroke-opacity="0.6" stroke-width="1.5"/>
<path d="M1.75 25.3773H4.25" stroke="#DCEE19" stroke-opacity="0.6" stroke-width="1.5"/>
<path d="M1.75 22.0996H4.25" stroke="#DCEE19" stroke-opacity="0.6" stroke-width="1.5"/>
<path d="M1.75 18.8121H4.25" stroke="#DCEE19" stroke-opacity="0.6" stroke-width="1.5"/>
<path d="M1.75 32.0315H4.25" stroke="#DCEE19" stroke-opacity="0.6" stroke-width="1.5"/>
<path d="M22 0.249512V34.0181" stroke="#DCEE19" stroke-opacity="0.6" stroke-width="1.5"/>
<path d="M26 0.249512V34.0181" stroke="#DCEE19" stroke-opacity="0.6" stroke-width="1.5"/>
</svg>
