<svg width="151" height="48" viewBox="0 0 151 48" fill="none" xmlns="http://www.w3.org/2000/svg">
<g clip-path="url(#clip0_408_2)">
<path d="M113 22L120 29L127 22" stroke="white"/>
<path d="M150 1H1V30.5M1 47H150V17.5" stroke="white"/>
<path d="M25.56 31V17.66H34.3V19.14H27.22V23.44H34.16V24.92H27.22V29.52H34.3V31H25.56ZM41.6467 31.24C40.9801 31.24 40.3667 31.0933 39.8067 30.8C39.2467 30.5067 38.7734 30.0867 38.3867 29.54V34.68H36.8867V21.34H38.3867V22.78C38.7334 22.2867 39.1934 21.8867 39.7667 21.58C40.3401 21.26 40.9667 21.1 41.6467 21.1C42.2867 21.1 42.8667 21.22 43.3867 21.46C43.9201 21.6867 44.3734 22.02 44.7467 22.46C45.1334 22.8867 45.4267 23.4133 45.6267 24.04C45.8401 24.6667 45.9467 25.3733 45.9467 26.16C45.9467 26.9467 45.8401 27.6533 45.6267 28.28C45.4267 28.9067 45.1334 29.44 44.7467 29.88C44.3734 30.32 43.9201 30.66 43.3867 30.9C42.8667 31.1267 42.2867 31.24 41.6467 31.24ZM41.2667 29.9C41.7467 29.9 42.1801 29.8067 42.5667 29.62C42.9534 29.4333 43.2801 29.1733 43.5467 28.84C43.8134 28.5067 44.0134 28.1133 44.1467 27.66C44.2934 27.1933 44.3667 26.6933 44.3667 26.16C44.3667 25.6267 44.2934 25.1333 44.1467 24.68C44.0134 24.2267 43.8134 23.8333 43.5467 23.5C43.2801 23.1667 42.9534 22.9067 42.5667 22.72C42.1801 22.5333 41.7467 22.44 41.2667 22.44C40.6667 22.44 40.1001 22.5933 39.5667 22.9C39.0467 23.1933 38.6534 23.5533 38.3867 23.98V28.34C38.6534 28.7667 39.0467 29.1333 39.5667 29.44C40.1001 29.7467 40.6667 29.9 41.2667 29.9ZM49.072 19.96C48.8054 19.96 48.572 19.8667 48.372 19.68C48.172 19.48 48.072 19.24 48.072 18.96C48.072 18.68 48.172 18.44 48.372 18.24C48.572 18.04 48.8054 17.94 49.072 17.94C49.352 17.94 49.592 18.04 49.792 18.24C49.992 18.44 50.092 18.68 50.092 18.96C50.092 19.24 49.992 19.48 49.792 19.68C49.592 19.8667 49.352 19.96 49.072 19.96ZM48.332 31V21.34H49.832V31H48.332ZM55.8842 31.24C55.0842 31.24 54.3576 31.12 53.7042 30.88C53.0509 30.6267 52.4776 30.24 51.9842 29.72L52.7642 28.64C53.0842 29.0133 53.5242 29.34 54.0842 29.62C54.6576 29.8867 55.2776 30.02 55.9442 30.02C56.6909 30.02 57.2576 29.8667 57.6442 29.56C58.0309 29.24 58.2242 28.84 58.2242 28.36C58.2242 27.9733 58.0776 27.68 57.7842 27.48C57.4909 27.2667 57.1176 27.0933 56.6642 26.96C56.2242 26.8267 55.7442 26.7067 55.2242 26.6C54.7176 26.48 54.2376 26.32 53.7842 26.12C53.3442 25.9067 52.9776 25.6333 52.6842 25.3C52.3909 24.9533 52.2442 24.48 52.2442 23.88C52.2442 23.5067 52.3242 23.1533 52.4842 22.82C52.6442 22.4733 52.8776 22.1733 53.1842 21.92C53.4909 21.6667 53.8642 21.4667 54.3042 21.32C54.7576 21.1733 55.2709 21.1 55.8442 21.1C56.6709 21.1 57.3776 21.24 57.9642 21.52C58.5509 21.7867 59.0376 22.1133 59.4242 22.5L58.7242 23.54C58.4309 23.1933 58.0309 22.9067 57.5242 22.68C57.0309 22.44 56.4709 22.32 55.8442 22.32C55.1776 22.32 54.6509 22.4667 54.2642 22.76C53.8909 23.0533 53.7042 23.4133 53.7042 23.84C53.7042 24.1867 53.8509 24.4533 54.1442 24.64C54.4376 24.8267 54.8042 24.9867 55.2442 25.12C55.6976 25.24 56.1776 25.36 56.6842 25.48C57.2042 25.5867 57.6842 25.7467 58.1242 25.96C58.5776 26.1733 58.9509 26.4667 59.2442 26.84C59.5376 27.2 59.6842 27.6933 59.6842 28.32C59.6842 28.72 59.6042 29.1 59.4442 29.46C59.2842 29.82 59.0442 30.1333 58.7242 30.4C58.4042 30.6533 58.0042 30.8533 57.5242 31C57.0576 31.16 56.5109 31.24 55.8842 31.24ZM66.3411 31.24C65.6078 31.24 64.9411 31.1067 64.3411 30.84C63.7544 30.5733 63.2544 30.2133 62.8411 29.76C62.4278 29.2933 62.1078 28.7533 61.8811 28.14C61.6678 27.5267 61.5611 26.8667 61.5611 26.16C61.5611 25.4667 61.6678 24.8133 61.8811 24.2C62.1078 23.5733 62.4278 23.0333 62.8411 22.58C63.2544 22.1267 63.7544 21.7667 64.3411 21.5C64.9411 21.2333 65.6078 21.1 66.3411 21.1C67.0744 21.1 67.7344 21.2333 68.3211 21.5C68.9211 21.7667 69.4278 22.1267 69.8411 22.58C70.2544 23.0333 70.5678 23.5733 70.7811 24.2C71.0078 24.8133 71.1211 25.4667 71.1211 26.16C71.1211 26.8667 71.0078 27.5267 70.7811 28.14C70.5678 28.7533 70.2544 29.2933 69.8411 29.76C69.4278 30.2133 68.9211 30.5733 68.3211 30.84C67.7344 31.1067 67.0744 31.24 66.3411 31.24ZM66.3411 29.9C66.8611 29.9 67.3144 29.8 67.7011 29.6C68.1011 29.3867 68.4344 29.1133 68.7011 28.78C68.9811 28.4333 69.1878 28.0333 69.3211 27.58C69.4678 27.1267 69.5411 26.6533 69.5411 26.16C69.5411 25.6667 69.4678 25.2 69.3211 24.76C69.1878 24.3067 68.9811 23.9133 68.7011 23.58C68.4344 23.2333 68.1011 22.96 67.7011 22.76C67.3144 22.5467 66.8611 22.44 66.3411 22.44C65.8211 22.44 65.3611 22.5467 64.9611 22.76C64.5611 22.96 64.2211 23.2333 63.9411 23.58C63.6744 23.9133 63.4678 24.3067 63.3211 24.76C63.1878 25.2 63.1211 25.6667 63.1211 26.16C63.1211 26.6533 63.1878 27.1267 63.3211 27.58C63.4678 28.0333 63.6744 28.4333 63.9411 28.78C64.2211 29.1133 64.5611 29.3867 64.9611 29.6C65.3611 29.8 65.8211 29.9 66.3411 29.9ZM80.5664 31V29.56C80.2064 30.0533 79.7397 30.46 79.1664 30.78C78.6064 31.0867 77.9864 31.24 77.3064 31.24C76.6797 31.24 76.0997 31.1267 75.5664 30.9C75.0464 30.66 74.5931 30.3267 74.2064 29.9C73.8331 29.46 73.5397 28.9267 73.3264 28.3C73.1131 27.6733 73.0064 26.9667 73.0064 26.18C73.0064 25.4067 73.1064 24.7067 73.3064 24.08C73.5197 23.4533 73.8131 22.92 74.1864 22.48C74.5731 22.04 75.0264 21.7 75.5464 21.46C76.0797 21.22 76.6664 21.1 77.3064 21.1C77.9597 21.1 78.5664 21.2533 79.1264 21.56C79.6997 21.8533 80.1797 22.2667 80.5664 22.8V17.66H82.0664V31H80.5664ZM77.6664 29.9C78.2664 29.9 78.8331 29.7533 79.3664 29.46C79.8997 29.1667 80.2997 28.8067 80.5664 28.38V24C80.2997 23.5733 79.8997 23.2067 79.3664 22.9C78.8331 22.5933 78.2664 22.44 77.6664 22.44C77.1864 22.44 76.7531 22.5333 76.3664 22.72C75.9797 22.9067 75.6531 23.1667 75.3864 23.5C75.1197 23.8333 74.9131 24.2333 74.7664 24.7C74.6331 25.1533 74.5664 25.6467 74.5664 26.18C74.5664 26.7133 74.6331 27.2067 74.7664 27.66C74.9131 28.1133 75.1197 28.5067 75.3864 28.84C75.6531 29.1733 75.9797 29.4333 76.3664 29.62C76.7531 29.8067 77.1864 29.9 77.6664 29.9ZM89.4303 31.24C88.7103 31.24 88.0503 31.12 87.4503 30.88C86.8503 30.6267 86.3303 30.28 85.8903 29.84C85.4636 29.3867 85.1236 28.8533 84.8703 28.24C84.6303 27.6133 84.5103 26.92 84.5103 26.16C84.5103 25.4667 84.6303 24.8133 84.8703 24.2C85.1103 23.5733 85.437 23.0333 85.8503 22.58C86.277 22.1267 86.777 21.7667 87.3503 21.5C87.937 21.2333 88.577 21.1 89.2703 21.1C90.0036 21.1 90.657 21.2333 91.2303 21.5C91.8036 21.7667 92.2903 22.1333 92.6903 22.6C93.0903 23.0667 93.3903 23.62 93.5903 24.26C93.8036 24.8867 93.9103 25.56 93.9103 26.28V26.66H86.0903C86.117 27.1133 86.217 27.5467 86.3903 27.96C86.5636 28.36 86.797 28.7133 87.0903 29.02C87.397 29.3133 87.757 29.5533 88.1703 29.74C88.5836 29.9133 89.0503 30 89.5703 30C90.1303 30 90.6703 29.8933 91.1903 29.68C91.7103 29.4667 92.1636 29.1667 92.5503 28.78L93.2703 29.76C92.7903 30.24 92.2303 30.6067 91.5903 30.86C90.9503 31.1133 90.2303 31.24 89.4303 31.24ZM92.4303 25.56C92.4303 25.2 92.3636 24.8333 92.2303 24.46C92.1103 24.0733 91.917 23.7267 91.6503 23.42C91.397 23.1 91.0703 22.84 90.6703 22.64C90.2703 22.44 89.797 22.34 89.2503 22.34C88.7303 22.34 88.277 22.44 87.8903 22.64C87.5036 22.84 87.177 23.0933 86.9103 23.4C86.657 23.7067 86.457 24.0533 86.3103 24.44C86.177 24.8133 86.1036 25.1867 86.0903 25.56H92.4303Z" fill="white"/>
</g>
<defs>
<clipPath id="clip0_408_2">
<rect width="151" height="48" fill="white"/>
</clipPath>
</defs>
</svg>
