<svg width="151" height="48" viewBox="0 0 151 48" fill="none" xmlns="http://www.w3.org/2000/svg">
<path d="M30.88 31.24C28.72 31.24 27.0133 30.5333 25.76 29.12L26.74 27.86C27.8733 29.1267 29.2733 29.76 30.94 29.76C32.02 29.76 32.8133 29.5333 33.32 29.08C33.8267 28.6133 34.08 28.0733 34.08 27.46C34.08 26.9933 33.9333 26.6 33.64 26.28C33.3467 25.96 32.9667 25.7133 32.5 25.54C32.0467 25.3533 31.5333 25.1867 30.96 25.04C30.4 24.8933 29.84 24.7333 29.28 24.56C28.72 24.3733 28.2067 24.1533 27.74 23.9C27.2867 23.6467 26.9133 23.2867 26.62 22.82C26.3267 22.3533 26.18 21.8 26.18 21.16C26.18 20.0667 26.6133 19.18 27.48 18.5C28.3467 17.8067 29.44 17.46 30.76 17.46C32.7467 17.46 34.3267 18.08 35.5 19.32L34.5 20.54C33.5267 19.4733 32.24 18.94 30.64 18.94C29.84 18.94 29.18 19.14 28.66 19.54C28.1533 19.9267 27.9 20.4333 27.9 21.06C27.9 21.5267 28.0933 21.9133 28.48 22.22C28.88 22.5267 29.3667 22.7533 29.94 22.9C30.5267 23.0467 31.16 23.2333 31.84 23.46C32.5333 23.6733 33.1667 23.9067 33.74 24.16C34.3267 24.4 34.8133 24.7933 35.2 25.34C35.6 25.8867 35.8 26.5467 35.8 27.32C35.8 28.4133 35.3933 29.34 34.58 30.1C33.78 30.86 32.5467 31.24 30.88 31.24ZM42.5788 31.24C41.1388 31.24 39.9588 30.7733 39.0388 29.84C38.1188 28.8933 37.6588 27.6667 37.6588 26.16C37.6588 24.7467 38.1121 23.5533 39.0188 22.58C39.9254 21.5933 41.0588 21.1 42.4188 21.1C43.8454 21.1 44.9721 21.5933 45.7988 22.58C46.6388 23.5533 47.0588 24.7867 47.0588 26.28V26.66H39.2388C39.3054 27.6067 39.6521 28.4 40.2788 29.04C40.9054 29.68 41.7188 30 42.7188 30C43.9188 30 44.9121 29.5933 45.6988 28.78L46.4188 29.76C45.4321 30.7467 44.1521 31.24 42.5788 31.24ZM45.5788 25.56C45.5654 24.7333 45.2854 23.9933 44.7388 23.34C44.1921 22.6733 43.4121 22.34 42.3988 22.34C41.4388 22.34 40.6788 22.6667 40.1188 23.32C39.5721 23.9733 39.2788 24.72 39.2388 25.56H45.5788ZM57.0283 31H55.5283V29.9C54.7149 30.7933 53.6483 31.24 52.3283 31.24C51.4349 31.24 50.6483 30.9533 49.9683 30.38C49.2883 29.8067 48.9483 29.0267 48.9483 28.04C48.9483 27.0267 49.2816 26.2467 49.9483 25.7C50.6283 25.14 51.4216 24.86 52.3283 24.86C53.7016 24.86 54.7683 25.3 55.5283 26.18V24.44C55.5283 23.8 55.3016 23.3 54.8483 22.94C54.3949 22.58 53.8083 22.4 53.0883 22.4C51.9549 22.4 50.9683 22.8467 50.1283 23.74L49.4283 22.7C50.4549 21.6333 51.7416 21.1 53.2883 21.1C54.3949 21.1 55.2949 21.3667 55.9883 21.9C56.6816 22.4333 57.0283 23.2533 57.0283 24.36V31ZM52.8683 30.16C54.0683 30.16 54.9549 29.76 55.5283 28.96V27.14C54.9549 26.34 54.0683 25.94 52.8683 25.94C52.1749 25.94 51.6016 26.14 51.1483 26.54C50.7083 26.9267 50.4883 27.4333 50.4883 28.06C50.4883 28.6733 50.7083 29.18 51.1483 29.58C51.6016 29.9667 52.1749 30.16 52.8683 30.16ZM63.0952 31.24C61.4552 31.24 60.1552 30.7333 59.1952 29.72L59.9752 28.64C60.3085 29.0267 60.7618 29.3533 61.3352 29.62C61.9218 29.8867 62.5285 30.02 63.1552 30.02C63.8752 30.02 64.4352 29.8667 64.8352 29.56C65.2352 29.2533 65.4352 28.8533 65.4352 28.36C65.4352 27.9333 65.2285 27.6 64.8152 27.36C64.4018 27.1067 63.9018 26.92 63.3152 26.8C62.7418 26.6667 62.1618 26.52 61.5752 26.36C60.9885 26.1867 60.4885 25.9 60.0752 25.5C59.6618 25.0867 59.4552 24.5467 59.4552 23.88C59.4552 23.0933 59.7752 22.4333 60.4152 21.9C61.0685 21.3667 61.9485 21.1 63.0552 21.1C64.5085 21.1 65.7018 21.5667 66.6352 22.5L65.9352 23.54C65.2552 22.7267 64.2952 22.32 63.0552 22.32C62.4018 22.32 61.8818 22.4667 61.4952 22.76C61.1085 23.04 60.9152 23.4 60.9152 23.84C60.9152 24.2267 61.1218 24.5333 61.5352 24.76C61.9485 24.9733 62.4418 25.1467 63.0152 25.28C63.6018 25.4 64.1885 25.5467 64.7752 25.72C65.3618 25.8933 65.8618 26.2 66.2752 26.64C66.6885 27.0667 66.8952 27.6267 66.8952 28.32C66.8952 29.1733 66.5618 29.8733 65.8952 30.42C65.2285 30.9667 64.2952 31.24 63.0952 31.24ZM77.012 29.78C76.1454 30.7533 74.992 31.24 73.552 31.24C72.112 31.24 70.952 30.7533 70.072 29.78C69.2054 28.8067 68.772 27.6 68.772 26.16C68.772 24.72 69.2054 23.52 70.072 22.56C70.952 21.5867 72.112 21.1 73.552 21.1C74.992 21.1 76.1454 21.5867 77.012 22.56C77.892 23.52 78.332 24.72 78.332 26.16C78.332 27.6 77.892 28.8067 77.012 29.78ZM71.192 28.82C71.7787 29.54 72.5654 29.9 73.552 29.9C74.5387 29.9 75.3187 29.54 75.892 28.82C76.4654 28.0867 76.752 27.2 76.752 26.16C76.752 25.12 76.4654 24.24 75.892 23.52C75.3187 22.8 74.5387 22.44 73.552 22.44C72.5654 22.44 71.7787 22.8067 71.192 23.54C70.6187 24.26 70.332 25.1333 70.332 26.16C70.332 27.2 70.6187 28.0867 71.192 28.82ZM88.7973 31H87.2973V24.68C87.2973 23.8667 87.1107 23.2933 86.7373 22.96C86.364 22.6133 85.8307 22.44 85.1373 22.44C84.5773 22.44 84.0307 22.5867 83.4973 22.88C82.9773 23.1733 82.5707 23.5267 82.2773 23.94V31H80.7773V21.34H82.2773V22.74C82.6507 22.3 83.1507 21.92 83.7773 21.6C84.404 21.2667 85.0507 21.1 85.7173 21.1C87.7707 21.1 88.7973 22.14 88.7973 24.22V31Z" fill="white"/>
<path d="M113 22L120 29L127 22" stroke="white"/>
<path d="M150 1H1V30.5M1 47H150V17.5" stroke="white"/>
</svg>
